<svg width="197" height="111" viewBox="0 0 197 111" fill="none" xmlns="http://www.w3.org/2000/svg">
<g style="mix-blend-mode:multiply">
<path d="M-1.68122 85.9378C-1.73713 89.9499 -1.93985 94.9292 -1.62636 99.2973C-1.45184 101.785 -1.30405 102.823 -0.696262 103.281C-0.149762 103.685 0.211186 103.896 1.0218 103.849C1.62976 103.813 2.24111 103.835 2.61916 103.842C3.22881 103.836 3.31228 103.773 3.31415 103.308C3.49503 97.4583 2.47389 90.9237 2.06846 86.4738C2.01243 86.0123 1.91881 85.9016 1.5902 85.7465C1.17304 85.5675 0.830888 85.1808 0.21954 85.1585C-0.216411 85.1549 -0.841474 85.3948 -1.15655 85.4713C-1.47162 85.5479 -1.67088 85.6176 -1.68122 85.9378ZM8.95457 95.4832C9.99609 97.3977 10.9166 99.726 12.5642 102.07C12.9437 102.6 13.172 102.528 13.722 102.496C14.2431 102.465 14.7676 102.493 15.2086 102.583C15.6207 102.675 16.0277 102.681 16.583 102.242C17.1384 101.802 17.307 101.705 17.3327 101.152C17.5862 97.0411 16.6916 89.1919 16.4255 85.6344C16.3423 84.7097 16.0598 84.3485 15.5813 84.1151C15.3123 83.9855 15.0416 83.8271 14.7403 83.6414C14.4389 83.4556 13.9757 83.4827 13.6623 83.5882C13.32 83.6953 13.3284 83.8401 13.3471 84.1586C13.484 86.9974 13.4685 92.1982 13.8281 96.3603C11.7125 92.969 10.0504 88.3892 8.89154 85.9587C8.65842 85.4494 8.36553 85.4084 7.86829 85.3504C7.37105 85.2923 6.89261 85.0588 6.45835 85.0842C6.05304 85.1079 5.70733 85.1572 5.10614 85.3085C4.47599 85.4616 4.27842 85.5603 4.27655 86.0252C4.32914 91.3962 4.10559 97.5097 5.04041 102.568C5.1628 103.171 5.40456 103.331 6.02099 103.44C6.66637 103.548 7.21643 103.515 7.78003 103.715C8.37258 103.913 8.92772 103.967 9.4148 103.852C9.87293 103.738 9.86447 103.593 9.84585 103.274C9.73921 101.451 9.19884 98.1706 8.95457 95.4832ZM27.2729 87.7018C27.0109 91.6678 27.2015 96.9147 28.113 100.58C28.2269 101.038 28.3478 101.118 28.8161 101.178C29.1379 101.217 29.378 101.348 29.8718 101.348C30.1544 101.709 30.4234 101.839 30.7026 102.142C31.106 102.583 31.7514 102.691 33.1972 102.577C35.3958 102.42 40.2156 100.889 40.1435 97.6685C40.1217 96.7983 39.744 95.8037 38.8213 94.928C38.4572 94.165 37.6894 93.4546 36.8194 92.9826C38.2723 91.9971 38.7802 90.7473 38.8095 89.7579C38.8338 88.6817 38.5174 87.7415 37.6935 86.5696C37.0917 83.7289 34.1869 82.7368 31.8129 82.8756C29.6127 83.0042 27.1363 83.8752 25.8281 84.8522C25.4942 85.1042 25.4993 85.191 25.661 85.4721C25.889 85.8945 26.0268 86.2641 26.3724 86.7086C26.6243 87.0425 26.8967 87.2299 27.2729 87.7018ZM31.4727 91.4651C31.4867 90.2151 31.5247 88.8766 31.5542 87.3934C33.0308 86.8132 35.0489 86.5499 35.9409 87.3983C35.9865 88.6738 34.1636 90.7848 31.4727 91.4651ZM31.4594 95.2132C33.3856 94.8682 35.2536 95.0204 36.1985 95.7786C36.2151 97.0558 34.1948 98.7716 31.768 99.0007C31.6033 97.674 31.5033 96.4598 31.4594 95.2132ZM44.8226 90.4812C44.6953 89.2976 44.597 88.1123 44.4799 87.1024C46.4757 86.9567 48.9112 86.3785 50.7401 86.3588C51.205 86.3606 51.3191 86.3249 51.3312 86.0337C51.3398 85.6846 51.2905 85.3389 50.9706 84.8347C50.7136 84.414 50.3987 83.9967 50.1655 83.4874C49.8644 82.8078 49.3263 82.5488 48.1615 82.5007C45.8303 82.3755 42.0477 83.2648 40.2868 83.4549C39.7674 83.5144 39.7537 83.7766 39.9834 84.228C40.3425 84.9042 40.441 85.5956 40.8257 86.2122C40.884 89.6947 40.3933 95.2138 41.1717 99.5838C41.255 100.015 41.4116 100.209 41.9327 100.178C42.1064 100.168 42.2801 100.158 42.4555 100.177C42.6155 100.429 42.8044 100.679 42.9594 100.845C43.3322 101.259 43.7698 101.291 44.6571 101.065C46.4317 100.613 48.823 99.7755 51.4712 99.3593C51.7879 99.3117 51.8118 99.2231 51.8323 99.0767C51.8528 98.9302 51.8443 98.7855 51.8563 98.4943C51.8633 98.1162 51.5687 98.0463 51.4888 97.6733C51.4072 97.2714 51.3512 96.8099 51.1555 96.4437C50.9598 96.0775 50.8695 96.0247 50.345 95.9973C49.0338 95.9287 46.5269 96.2786 45.0896 96.5369C45.1068 95.8387 45.0918 95.0843 45.0767 94.3299C47.0743 94.2131 49.1078 93.7166 50.3425 93.4701C50.5724 93.4276 50.6219 93.2795 50.6918 92.9849C50.7361 92.7499 50.6647 92.5217 50.6256 92.3497C50.5491 92.0346 50.3413 91.9596 50.2376 91.6752C50.1338 91.3907 50.1067 90.9275 49.9059 90.4745C49.7409 90.1355 49.6796 90.081 49.2998 90.0451C47.929 89.951 46.2566 90.1649 44.8226 90.4812ZM57.1301 92.6665C58.1716 94.581 59.0921 96.9093 60.7397 99.2531C61.1193 99.7828 61.3475 99.7114 61.8976 99.6792C62.4187 99.6488 62.9432 99.6762 63.3842 99.7666C63.7963 99.8587 64.2033 99.864 64.7586 99.4248C65.3139 98.9856 65.4825 98.8886 65.5083 98.3352C65.7618 94.2244 64.8671 86.3752 64.601 82.8177C64.5179 81.893 64.2353 81.5318 63.7569 81.2984C63.4879 81.1689 63.2171 81.0104 62.9158 80.8247C62.6144 80.6389 62.1512 80.666 61.8379 80.7715C61.4955 80.8786 61.504 81.0234 61.5226 81.3419C61.6595 84.1807 61.6441 89.3815 62.0036 93.5436C59.8881 90.1523 58.2259 85.5725 57.0671 83.142C56.834 82.6327 56.5411 82.5917 56.0438 82.5337C55.5466 82.4756 55.0681 82.2421 54.6339 82.2675C54.2286 82.2912 53.8829 82.3405 53.2817 82.4918C52.6515 82.6449 52.454 82.7436 52.4521 83.2085C52.5047 88.5796 52.2811 94.693 53.2159 99.7511C53.3383 100.354 53.5801 100.514 54.1965 100.623C54.8419 100.731 55.392 100.699 55.9556 100.898C56.5481 101.096 57.1033 101.151 57.5903 101.035C58.0485 100.921 58.04 100.776 58.0214 100.458C57.9148 98.6339 57.3744 95.3539 57.1301 92.6665ZM70.3862 99.1829C70.7028 99.6292 71.1301 99.9819 71.7057 99.8901C75.8253 99.3007 79.8727 95.9848 79.6462 91.1177C79.3285 84.1934 73.9218 79.1644 65.3331 81.3224C64.9601 81.4023 64.9992 81.5743 65.1047 81.8877C65.2119 82.23 65.491 82.5333 65.8723 83.092C66.1906 83.5672 66.4899 84.7117 67.3003 85.1581C67.2021 88.4465 67.0143 94.6741 67.7573 97.9423C67.9137 98.6303 68.0022 98.6542 68.6204 98.7923C69.1499 98.9066 69.4598 99.2371 70.3862 99.1829ZM75.3785 86.6902C76.7075 89.5465 75.9039 93.6895 71.9287 95.2582C71.7681 92.014 71.4033 88.2589 71.2323 85.3349C72.8603 85.3559 74.2669 85.5642 75.3785 86.6902ZM79.6419 101.924C79.4613 102.313 79.5889 102.508 80.0521 102.481C80.4864 102.456 80.7793 102.497 81.5933 102.507C82.4362 102.516 82.9335 102.574 83.6098 101.721C84.2862 100.868 85.0022 98.706 84.9279 96.9383C84.8976 95.9234 84.6134 95.5333 84.1383 95.3577C83.6632 95.1822 83.3754 95.228 82.9038 95.1104C82.1664 94.9211 81.5228 94.8425 81.097 95.0127C80.6712 95.1828 80.4413 95.2253 80.5347 95.8299C80.8643 97.9893 80.3339 100.344 79.6419 101.924ZM107.941 95.6219C108.072 95.3818 108.037 95.2677 107.856 95.162C106.203 94.2129 104.327 92.9282 102.653 91.6317C105.263 90.0557 106.587 87.3638 106.625 85.5315C106.67 83.8149 105.999 82.7793 105.038 81.7317C103.806 79.044 102.27 78.6109 99.8327 78.6662C97.7432 78.7012 95.5954 79.7274 93.7646 80.212C93.4206 80.2903 93.3132 80.4418 93.4204 80.7841C93.6994 81.5812 94.2459 81.985 94.6339 82.6595C94.7293 82.7991 94.8246 82.9388 94.8892 83.0512C94.741 87.9693 94.911 93.8564 95.7308 96.452C95.9792 97.2218 96.3009 97.7549 97.0331 97.8573C97.6478 97.9376 97.9731 98.0348 98.3272 98.1303C98.6814 98.2258 99.0662 98.3485 99.4937 98.2073C99.7219 98.1359 99.8037 98.044 99.7612 97.814C99.6067 96.6611 99.476 95.4196 99.4015 94.1458C101.01 95.3299 102.818 96.4443 104.068 96.9522C104.724 97.2334 105.514 97.3324 106.102 96.9495C106.604 96.6006 106.793 96.3571 107.076 96.2244C107.388 96.09 107.73 95.9828 107.941 95.6219ZM99.2215 83.1175C100.673 82.5969 102.694 82.3916 103.545 83.039C103.863 84.9958 101.413 87.8116 99.1735 88.7559C99.1402 86.6953 99.1715 84.7472 99.2215 83.1175ZM112.082 86.5487C111.955 85.3651 111.856 84.1798 111.739 83.17C113.735 83.0242 116.17 82.4461 117.999 82.4263C118.464 82.4282 118.578 82.3924 118.59 82.1012C118.599 81.7521 118.55 81.4064 118.23 80.9022C117.973 80.4815 117.658 80.0642 117.425 79.5549C117.124 78.8754 116.585 78.6163 115.421 78.5682C113.089 78.4431 109.307 79.3324 107.546 79.5225C107.027 79.5819 107.013 79.8441 107.243 80.2955C107.602 80.9717 107.7 81.6631 108.085 82.2797C108.143 85.7623 107.652 91.2813 108.431 95.6513C108.514 96.0822 108.671 96.2764 109.192 96.2459C109.366 96.2358 109.539 96.2256 109.715 96.2444C109.875 96.4965 110.064 96.7469 110.219 96.9121C110.591 97.3261 111.029 97.3586 111.916 97.1324C113.691 96.6801 116.082 95.8431 118.73 95.4268C119.047 95.3792 119.071 95.2907 119.091 95.1442C119.112 94.9978 119.103 94.853 119.116 94.5618C119.122 94.1838 118.828 94.1139 118.748 93.7409C118.666 93.339 118.61 92.8774 118.415 92.5112C118.219 92.145 118.129 92.0922 117.604 92.0648C116.293 91.9962 113.786 92.3461 112.349 92.6045C112.366 91.9063 112.351 91.1519 112.336 90.3974C114.333 90.2807 116.367 89.7841 117.602 89.5376C117.832 89.4951 117.881 89.347 117.951 89.0524C117.995 88.8174 117.924 88.5892 117.885 88.4172C117.808 88.1021 117.601 88.0271 117.497 87.7427C117.393 87.4583 117.366 86.9951 117.165 86.542C117 86.2031 116.939 86.1485 116.559 86.1126C115.188 86.0185 113.516 86.2325 112.082 86.5487ZM126.916 90.2131C125.713 86.5361 124.213 82.2373 123.151 79.9754C122.686 78.9859 122.153 78.8137 121.629 78.7862C121.251 78.7793 120.839 78.6872 120.282 78.6035C119.696 78.5216 119.274 78.7496 118.908 78.9453C118.627 79.107 118.511 79.1138 118.683 79.5685C120.081 83.118 121.582 91.3965 123.782 95.2476C124.301 96.1759 124.652 96.2135 125.354 96.2887C126.026 96.3655 126.403 96.3435 126.965 96.514C127.527 96.6845 127.758 96.671 128.135 96.649C128.511 96.627 128.68 96.53 128.889 96.1401C130.067 93.9215 131.918 83.3555 132.417 79.4627C132.533 78.4682 132.278 78.0765 131.883 77.78C131.518 77.5108 131.384 77.1992 130.933 76.935C130.512 76.6982 130.257 76.8003 130.161 77.1544C129.392 80.3949 127.888 85.4793 126.916 90.2131ZM133.261 78.048C133.205 82.0601 133.003 87.0395 133.316 91.4076C133.491 93.8957 133.638 94.9328 134.246 95.3911C134.793 95.7949 135.154 96.0062 135.964 95.9588C136.572 95.9233 137.184 95.9456 137.562 95.9526C138.171 95.946 138.255 95.883 138.257 95.4181C138.437 89.5685 137.416 83.034 137.011 78.5841C136.955 78.1226 136.861 78.0118 136.533 77.8568C136.115 77.6778 135.773 77.2911 135.162 77.2688C134.726 77.2652 134.101 77.5051 133.786 77.5816C133.471 77.6581 133.272 77.7279 133.261 78.048ZM143.407 84.7172C143.28 83.5336 143.182 82.3483 143.064 81.3384C145.06 81.1927 147.496 80.6146 149.325 80.5948C149.79 80.5967 149.904 80.5609 149.916 80.2697C149.924 79.9206 149.875 79.5749 149.555 79.0707C149.298 78.65 148.983 78.2327 148.75 77.7234C148.449 77.0438 147.911 76.7848 146.746 76.7367C144.415 76.6116 140.632 77.5009 138.871 77.691C138.352 77.7504 138.338 78.0126 138.568 78.464C138.927 79.1402 139.026 79.8316 139.41 80.4482C139.469 83.9307 138.978 89.4498 139.756 93.8198C139.84 94.2507 139.996 94.4449 140.517 94.4144C140.691 94.4043 140.865 94.3941 141.04 94.4129C141.2 94.665 141.389 94.9154 141.544 95.0806C141.917 95.4946 142.354 95.5271 143.242 95.3009C145.016 94.8486 147.408 94.0116 150.056 93.5953C150.373 93.5477 150.396 93.4592 150.417 93.3127C150.437 93.1663 150.429 93.0215 150.441 92.7303C150.448 92.3523 150.153 92.2823 150.073 91.9094C149.992 91.5075 149.936 91.0459 149.74 90.6797C149.544 90.3135 149.454 90.2607 148.93 90.2333C147.618 90.1647 145.111 90.5146 143.674 90.7729C143.691 90.0747 143.676 89.3203 143.661 88.5659C145.659 88.4491 147.692 87.9526 148.927 87.7061C149.157 87.6636 149.206 87.5155 149.276 87.2209C149.321 86.9859 149.249 86.7577 149.21 86.5857C149.134 86.2706 148.926 86.1956 148.822 85.9112C148.718 85.6268 148.691 85.1635 148.49 84.7105C148.325 84.3715 148.264 84.317 147.884 84.2811C146.514 84.187 144.841 84.401 143.407 84.7172ZM157.064 86.6204C156.252 83.1818 155.14 79.5576 154.349 77.948C153.986 77.2139 153.748 77.1117 153.424 77.0434C153.16 77.0008 152.811 76.9921 152.341 76.9034C151.871 76.8147 151.458 76.6936 151.056 76.7752C150.683 76.8551 150.228 77.027 150.066 77.2398C149.904 77.4526 149.911 77.5684 149.982 77.7966C151.791 83.3846 152.696 89.9259 154.576 93.7667C154.907 94.4446 155.138 94.4311 155.484 94.3818C155.743 94.3376 155.915 94.2985 156.558 94.3771C157.173 94.4573 157.839 94.4184 158.125 94.3436C158.44 94.267 158.462 94.1495 158.534 93.8839C158.882 91.8882 159.411 88.0227 159.841 85.4412C160.333 87.3878 160.891 89.9697 161.193 91.1721C161.311 91.6881 161.452 92.1156 161.581 92.3404C161.807 92.7339 162.305 92.792 162.742 92.8245C163.18 92.857 163.5 92.8673 164.207 93.0294C164.913 93.1914 165.237 93.2596 165.733 93.2887C166.082 93.2974 166.39 93.1051 166.496 92.4307C167.231 87.6236 168.233 80.9127 168.732 77.5138C168.797 77.1323 168.826 76.6368 168.511 76.2195C168.324 75.998 168.045 75.6948 167.74 75.4512C167.462 75.1769 167.159 74.9622 166.839 74.9519C166.519 74.9416 166.437 75.0335 166.342 75.3877C165.755 77.775 164.951 81.9179 164.356 85.6421C163.881 83.4911 163.157 80.5413 162.73 79.201C162.552 78.6304 162.242 78.2999 161.831 78.2368C161.509 78.1975 161.128 78.1327 160.772 78.0082C160.416 77.8838 160.031 77.761 159.478 77.7353C158.925 77.7095 158.734 77.924 158.691 78.188C158.285 80.1871 157.616 83.654 157.064 86.6204ZM173.743 82.9435C173.616 81.76 173.517 80.5747 173.4 79.5648C175.396 79.419 177.832 78.8409 179.661 78.8211C180.125 78.823 180.24 78.7873 180.252 78.4961C180.26 78.147 180.211 77.8013 179.891 77.2971C179.634 76.8764 179.319 76.459 179.086 75.9498C178.785 75.2702 178.247 75.0111 177.082 74.9631C174.751 74.8379 170.968 75.7272 169.207 75.9173C168.688 75.9767 168.674 76.239 168.904 76.6903C169.263 77.3665 169.361 78.058 169.746 78.6746C169.804 82.1571 169.314 87.6761 170.092 92.0462C170.175 92.477 170.332 92.6712 170.853 92.6408C171.027 92.6306 171.201 92.6204 171.376 92.6392C171.536 92.8913 171.725 93.1417 171.88 93.307C172.253 93.7209 172.69 93.7534 173.578 93.5272C175.352 93.0749 177.743 92.2379 180.392 91.8216C180.708 91.774 180.732 91.6855 180.753 91.5391C180.773 91.3926 180.765 91.2479 180.777 90.9567C180.784 90.5786 180.489 90.5087 180.409 90.1357C180.328 89.7338 180.272 89.2723 180.076 88.9061C179.88 88.5399 179.79 88.4871 179.265 88.4596C177.954 88.391 175.447 88.741 174.01 88.9993C174.027 88.3011 174.012 87.5467 173.997 86.7923C175.995 86.6755 178.028 86.1789 179.263 85.9325C179.493 85.89 179.542 85.7418 179.612 85.4472C179.657 85.2123 179.585 84.984 179.546 84.812C179.47 84.497 179.262 84.4219 179.158 84.1375C179.054 83.8531 179.027 83.3899 178.826 82.9368C178.661 82.5979 178.6 82.5434 178.22 82.5075C176.849 82.4133 175.177 82.6273 173.743 82.9435ZM185.086 92.4767C185.402 92.923 185.83 93.2757 186.405 93.1839C190.525 92.5945 194.572 89.2786 194.346 84.4115C194.028 77.4872 188.621 72.4583 180.033 74.6162C179.66 74.6961 179.699 74.8682 179.804 75.1815C179.911 75.5239 180.191 75.8271 180.572 76.3858C180.89 76.861 181.19 78.0055 182 78.452C181.902 81.7403 181.714 87.9679 182.457 91.2361C182.613 91.9241 182.702 91.948 183.32 92.0861C183.85 92.2004 184.159 92.5309 185.086 92.4767ZM190.078 79.9841C191.407 82.8404 190.604 86.9833 186.628 88.552C186.468 85.3079 186.103 81.5528 185.932 78.6288C187.56 78.6498 188.967 78.858 190.078 79.9841Z" fill="#BD4F00"/>
<path d="M-2.54739 50.2555C-3.0713 58.1876 -2.69017 68.6812 -0.867218 76.0113C-0.639349 76.9276 -0.397589 77.0878 0.538985 77.2073C1.18267 77.2859 1.6628 77.5483 2.65051 77.5486C3.21563 78.2709 3.75366 78.5299 4.31201 79.1364C5.11889 80.0188 6.40964 80.2338 9.30131 80.0066C13.6984 79.6914 23.3381 76.6296 23.194 70.189C23.1503 68.4486 22.3949 66.4593 20.5495 64.708C19.8212 63.1819 18.2857 61.7611 16.5456 60.8171C19.4515 58.8461 20.4674 56.3466 20.526 54.3678C20.5744 52.2153 19.9416 50.335 18.294 47.9912C17.0903 42.3097 11.2806 40.3254 6.5327 40.603C2.13221 40.8603 -2.82055 42.6024 -5.43696 44.5564C-6.10469 45.0603 -6.09453 45.234 -5.77117 45.796C-5.31509 46.6409 -5.03947 47.38 -4.34839 48.2692C-3.84456 48.9369 -3.29975 49.3118 -2.54739 50.2555ZM5.85224 57.7821C5.88037 55.2821 5.95625 52.6052 6.01521 49.6387C8.96851 48.4783 13.0047 47.9518 14.7887 49.6486C14.8798 52.1996 11.234 56.4216 5.85224 57.7821ZM5.82574 65.2784C9.67803 64.5884 13.4142 64.8928 15.3039 66.4091C15.337 68.9635 11.2965 72.3952 6.44292 72.8533C6.11349 70.2 5.9134 67.7715 5.82574 65.2784ZM32.9225 69.6783C29.5284 65.2869 31.4884 51.1124 31.3506 45.7753C31.3341 44.4981 30.7178 43.895 30.0061 43.6461C29.2364 43.4007 28.821 43.2506 27.9867 42.8927C27.0944 42.5382 26.1988 42.1258 25.1976 41.8938C24.1384 41.6652 23.5015 41.7025 23.4399 42.6357C23.0159 47.3084 22.9108 55.4484 23.1681 59.8489C23.4288 64.3073 24.4557 68.9533 26.7162 71.8422C28.0371 73.5661 29.726 74.6293 31.4458 75.226C35.4636 78.3608 38.1511 77.6227 40.7062 75.6141C49.6491 68.5841 46.9567 54.333 45.4894 43.1476C45.1836 40.8996 44.2542 39.9081 43.0179 39.6318C42.1359 39.451 41.264 39.4439 40.3684 39.0315C39.2923 38.5134 38.4136 38.3905 36.6935 38.7815C36.0634 38.9346 35.91 39.2921 35.8961 40.0482C35.936 42.7184 36.8563 50.508 37.1884 55.1946C37.7067 63.0658 35.9438 68.6883 32.9225 69.6783ZM75.4999 70.9654C75.7623 70.4852 75.6909 70.257 75.3299 70.0457C72.0235 68.1475 68.2711 65.5781 64.9241 62.985C70.143 59.833 72.7913 54.4493 72.8675 50.7846C72.9573 47.3515 71.6161 45.2803 69.6925 43.185C67.2286 37.8096 64.1568 36.9434 59.2829 37.0541C55.1039 37.1241 50.8084 39.1763 47.1467 40.1457C46.4587 40.3021 46.244 40.6052 46.4583 41.2899C47.0163 42.884 48.1093 43.6916 48.8854 45.0406C49.076 45.3199 49.2666 45.5993 49.396 45.8241C49.0996 55.6602 49.4394 67.4344 51.0792 72.6256C51.5759 74.1652 52.2192 75.2315 53.6837 75.4363C54.9131 75.5969 55.5636 75.7912 56.2719 75.9822C56.9803 76.1732 57.7499 76.4187 58.6049 76.1363C59.0614 75.9934 59.2249 75.8095 59.1399 75.3497C58.8308 73.0438 58.5694 70.5609 58.4205 68.0132C61.6382 70.3814 65.2544 72.6102 67.754 73.626C69.0651 74.1884 70.6453 74.3865 71.8206 73.6206C72.8256 72.9228 73.2038 72.4359 73.7693 72.1704C74.3927 71.9016 75.0773 71.6873 75.4999 70.9654ZM58.0605 45.9566C60.9627 44.9154 65.0056 44.5048 66.7081 45.7996C67.3436 49.7132 62.4439 55.3448 57.9645 57.2334C57.8979 53.1123 57.9605 49.216 58.0605 45.9566ZM101.397 69.4512C101.66 68.9711 101.588 68.7429 101.227 68.5316C97.9207 66.6333 94.1683 64.064 90.8213 61.4709C96.0402 58.3189 98.6885 52.9352 98.7647 49.2705C98.8545 45.8374 97.5133 43.7661 95.5897 41.6708C93.1258 36.2955 90.054 35.4293 85.1801 35.5399C81.0011 35.61 76.7055 37.6622 73.0439 38.6316C72.3558 38.788 72.1412 39.0911 72.3555 39.7757C72.9135 41.3699 74.0065 42.1774 74.7825 43.5264C74.9732 43.8058 75.1638 44.0851 75.2931 44.31C74.9968 54.146 75.3366 65.9203 76.9764 71.1114C77.4731 72.6511 78.1164 73.7173 79.5809 73.9222C80.8103 74.0827 81.4608 74.2771 82.1691 74.4681C82.8775 74.659 83.6471 74.9045 84.5021 74.6222C84.9585 74.4793 85.1221 74.2954 85.0371 73.8356C84.728 71.5297 84.4666 69.0467 84.3177 66.4991C87.5354 68.8673 91.1516 71.096 93.6512 72.1119C94.9622 72.6743 96.5425 72.8724 97.7178 72.1065C98.7228 71.4086 99.101 70.9217 99.6665 70.6563C100.29 70.3874 100.975 70.1731 101.397 69.4512ZM83.9577 44.4425C86.8598 43.4013 90.9028 42.9906 92.6052 44.2855C93.2407 48.1991 88.3411 53.8306 83.8617 55.7193C83.795 51.5982 83.8577 47.7019 83.9577 44.4425ZM101.826 37.2393C101.714 45.2635 101.309 55.2221 101.936 63.9584C102.285 68.9345 102.58 71.0088 103.796 71.9254C104.889 72.733 105.611 73.1556 107.232 73.0608C108.448 72.9897 109.671 73.0344 110.427 73.0483C111.646 73.0351 111.813 72.9092 111.817 71.9794C112.178 60.2803 110.136 47.2112 109.325 38.3114C109.213 37.3883 109.026 37.1669 108.369 36.8567C107.534 36.4988 106.85 35.7254 105.627 35.6807C104.756 35.6736 103.505 36.1534 102.875 36.3064C102.245 36.4595 101.847 36.599 101.826 37.2393ZM121.899 44.3738C122.073 51.3355 120.922 62.4417 123.351 69.2134C123.698 70.1808 124.485 70.7158 125.653 70.8218C126.879 70.9244 127.352 71.071 128.118 71.2586C128.885 71.4462 129.123 71.5485 129.811 71.3921C130.441 71.239 131.119 70.9089 131.395 70.6604C131.726 70.3505 131.821 69.9964 131.828 69.1245C131.742 62.6805 130.868 50.7051 130.148 43.3686C134.242 42.8388 137.927 42.2747 139.467 41.778C140.094 41.567 140.135 41.2741 140.111 40.8688C140.084 40.4056 140.064 40.0582 139.921 39.6018C139.696 38.7434 139.029 38.2596 138.522 37.5339C138.079 36.9207 137.484 35.6774 136.718 34.502C136.02 33.4971 135.478 33.1801 134.028 33.2069C126.487 33.4153 119.586 35.6199 112.096 36.6969C110.945 36.8804 110.72 37.0098 111.074 38.093C111.356 38.9479 111.608 40.2695 111.934 40.8895C112.329 41.6798 112.816 42.058 113.551 42.7122C114.226 43.3119 114.713 43.6901 115.271 44.2966C115.829 44.903 116.47 44.9237 117.624 44.7981C118.895 44.6657 120.339 44.5231 121.899 44.3738ZM169.679 51.1085C169.191 42.7708 164.144 32.9566 153.044 33.8961C152.805 33.7939 152.506 33.6371 152.206 33.4803C150.534 32.7066 149.212 32.9581 148.034 33.6661C143.762 36.1237 139.267 43.707 139.642 52.1094C139.969 59.7012 144.405 66.0071 150.811 67.2593C153.658 69.2425 156.641 70.5787 160.051 69.2755C164.652 67.4958 170.318 62.0518 169.679 51.1085ZM161.362 49.968C161.792 57.3214 157.073 63.0587 151.675 62.1542C147.102 57.4831 146.929 45.5829 154.462 40.2622C158.177 41.207 161.084 45.2201 161.362 49.968ZM189.598 65.6887C194.221 62.2811 193.953 58.6946 192.714 56.385C190.502 52.3312 183.534 49.4269 180.923 46.5003C179.306 44.6776 178.759 42.2695 180.04 40.3354C183.153 39.921 186.299 43.0487 188.369 45.6583C188.999 46.493 189.4 46.4114 189.775 45.8666C190.099 45.441 190.3 44.9063 190.788 43.3091C191.183 42.124 191.684 41.7461 191.698 40.0023C191.74 36.7463 186.879 31.1045 180.52 30.6629C178.303 30.502 176.113 30.8043 174.095 36.0351C172.095 38.5922 171.709 40.9387 171.834 43.081C172.091 47.4815 176.477 51.9311 178.983 54.0505C181.247 56.0097 183.562 57.8497 183.769 59.4062C181.351 60.7677 175.415 57.6288 172.702 54.9406C172.024 54.283 171.626 54.4225 171.425 54.9572C171.227 55.5497 171.336 56.4148 171.117 57.6477C170.981 58.2948 170.54 60.7026 171.671 62.1471C175.068 66.5963 180.574 69.3537 183.875 69.1607C186.365 69.0151 187.949 68.2834 189.598 65.6887Z" fill="#F02424"/>
<path d="M-5.16523 11.2378C-5.61688 18.0758 -5.28831 27.122 -3.71681 33.4411C-3.52037 34.231 -3.31195 34.369 -2.50456 34.4721C-1.94966 34.5398 -1.53575 34.766 -0.684283 34.7663C-0.197111 35.389 0.266714 35.6123 0.748049 36.1351C1.44363 36.8958 2.55635 37.0811 5.04917 36.8853C8.83977 36.6136 17.1499 33.974 17.0256 28.4218C16.988 26.9215 16.3368 25.2066 14.7459 23.6968C14.1181 22.3812 12.7943 21.1564 11.2943 20.3426C13.7994 18.6435 14.6751 16.4887 14.7256 14.7828C14.7674 12.9272 14.2218 11.3063 12.8015 9.28576C11.7638 4.38798 6.75544 2.67739 2.66243 2.91669C-1.13109 3.13849 -5.40071 4.64026 -7.65624 6.32478C-8.23187 6.75912 -8.22311 6.90886 -7.94435 7.39342C-7.55117 8.12171 -7.31358 8.75893 -6.71782 9.52547C-6.28348 10.1011 -5.81382 10.4242 -5.16523 11.2378ZM2.07583 17.7262C2.10008 15.5711 2.1655 13.2633 2.21632 10.706C4.76227 9.70571 8.24171 9.25185 9.77971 10.7146C9.85821 12.9137 6.71529 16.5534 2.07583 17.7262ZM2.05298 24.1885C5.37392 23.5937 8.59473 23.8561 10.2238 25.1633C10.2524 27.3654 6.76912 30.3237 2.58503 30.7186C2.30104 28.4313 2.12856 26.3378 2.05298 24.1885ZM40.2792 30.3679C40.5054 29.954 40.4439 29.7572 40.1327 29.5751C37.2823 27.9387 34.0475 25.7237 31.1621 23.4883C35.6612 20.7711 37.9442 16.1299 38.0099 12.9707C38.0873 10.0111 36.9311 8.22556 35.2729 6.41927C33.1488 1.78535 30.5007 1.03864 26.2991 1.13404C22.6965 1.19442 18.9934 2.96358 15.8368 3.79924C15.2437 3.93409 15.0586 4.19534 15.2434 4.78556C15.7244 6.15983 16.6666 6.85602 17.3356 8.01895C17.5 8.25977 17.6643 8.50059 17.7758 8.69441C17.5203 17.1738 17.8133 27.324 19.2269 31.7991C19.6551 33.1264 20.2097 34.0456 21.4721 34.2222C22.532 34.3606 23.0927 34.5281 23.7034 34.6928C24.314 34.8574 24.9775 35.069 25.7146 34.8256C26.1081 34.7024 26.249 34.5439 26.1758 34.1475C25.9093 32.1597 25.684 30.0192 25.5556 27.8229C28.3295 29.8645 31.4469 31.7858 33.6017 32.6616C34.7319 33.1464 36.0942 33.3172 37.1074 32.6569C37.9738 32.0553 38.2998 31.6356 38.7873 31.4067C39.3247 31.175 39.9149 30.9902 40.2792 30.3679ZM25.2452 8.80864C27.7471 7.91108 31.2324 7.55705 32.7 8.67329C33.2479 12.0471 29.024 16.9019 25.1625 18.53C25.105 14.9773 25.1591 11.6185 25.2452 8.80864ZM47.4182 14.7245C47.1987 12.6839 47.0291 10.6403 46.8271 8.8991C50.2683 8.64782 54.4673 7.65104 57.6207 7.61692C58.4223 7.62014 58.619 7.55856 58.6397 7.05649C58.6546 6.45459 58.5697 5.85853 58.018 4.98925C57.5749 4.26388 57.032 3.54434 56.6301 2.6663C56.1108 1.49462 55.1831 1.048 53.1749 0.965076C49.1554 0.749314 42.6338 2.28258 39.5978 2.61034C38.7022 2.71279 38.6786 3.16494 39.0747 3.94315C39.6938 5.109 39.8636 6.30112 40.5268 7.36422C40.6274 13.3686 39.7814 22.8842 41.1235 30.4187C41.2671 31.1616 41.5371 31.4964 42.4355 31.4439C42.735 31.4264 43.0345 31.4088 43.3369 31.4413C43.6128 31.8759 43.9385 32.3076 44.2056 32.5925C44.8484 33.3062 45.6029 33.3623 47.1328 32.9723C50.1925 32.1924 54.3153 30.7493 58.8811 30.0316C59.4273 29.9496 59.4684 29.7969 59.5038 29.5444C59.5391 29.2919 59.5245 29.0423 59.5452 28.5403C59.5572 27.8885 59.0493 27.7679 58.9115 27.1248C58.7708 26.4319 58.6742 25.6362 58.3368 25.0048C57.9994 24.3734 57.8438 24.2823 56.9395 24.235C54.6787 24.1168 50.3566 24.7201 47.8784 25.1655C47.9082 23.9617 47.8822 22.661 47.8562 21.3603C51.3003 21.1589 54.8064 20.3028 56.9352 19.8778C57.3316 19.8046 57.4168 19.5492 57.5374 19.0413C57.6139 18.6361 57.4907 18.2426 57.4233 17.9461C57.2913 17.4028 56.9332 17.2735 56.7542 16.7831C56.5753 16.2927 56.5286 15.4941 56.1824 14.713C55.8978 14.1286 55.7922 14.0346 55.1374 13.9727C52.7739 13.8104 49.8906 14.1793 47.4182 14.7245ZM75.1627 24.5219C75.7815 26.5392 76.3857 28.3069 77.0547 29.4699C78.3429 31.7986 79.8021 31.9137 81.4492 31.8174C82.5474 31.7532 83.3548 31.8562 84.1975 31.7068C85.0402 31.5573 85.0198 31.2079 84.7322 30.5736C83.1803 27.1584 81.9287 21.1712 80.7357 15.3309C79.49 9.44358 78.4027 3.69724 76.9269 0.728321C76.0732 -1.02484 74.705 -1.29544 73.7067 -1.23708C73.1078 -1.20206 72.5029 -1.26686 71.5487 -1.31124C70.6444 -1.35854 69.9456 -1.31769 69.1117 -1.0185C68.818 -0.901158 68.771 -0.848325 68.7415 -0.496005C68.7062 -0.243513 68.9292 0.144132 69.3723 0.869506C68.9847 1.09251 68.4443 1.27436 67.8541 1.45913C66.6737 1.82865 65.6958 2.23642 65.1873 3.8188C64.0468 7.44155 62.3385 14.2028 61.438 20.2156C61.0416 20.2889 60.5982 20.415 60.2546 20.5352C59.6644 20.72 59.679 20.9696 59.761 21.5157C59.9279 22.6579 60.3594 23.1836 60.8316 24.4081C60.8874 24.505 60.8932 24.6049 60.949 24.7018C60.8929 25.4563 60.8868 26.208 60.8777 26.9097C60.8713 28.5128 61.326 29.4379 62.2654 30.0841C63.3104 30.8244 63.3953 31.4205 64.1615 31.6762C64.8778 31.9348 65.3271 31.9085 65.6736 31.8382C66.02 31.7678 66.1082 31.5624 66.173 30.9575C66.4232 29.24 66.7644 27.3669 67.1997 25.3881C69.4429 25.2069 72.2793 24.8908 75.1627 24.5219ZM68.5291 18.9996C69.4877 14.8366 70.4493 10.7234 71.0582 7.43229C71.8411 10.5419 72.7293 14.597 73.6087 18.5023C71.9145 18.6514 70.1704 18.8035 68.5291 18.9996ZM93.1344 23.3709C95.5089 25.4359 99.4805 28.2589 101.597 29.3372C102.528 29.8337 103.367 29.6343 103.755 29.4113C104.143 29.1883 104.519 28.7657 105.535 28.1553C106.601 27.542 106.927 27.1223 107.35 26.6468C107.773 26.1713 107.711 25.9746 107.242 25.6514C104.218 23.6244 99.3924 19.8997 96.5307 17.2122C100.522 12.6715 104.594 6.07256 105.508 3.71519C105.94 2.53797 106.252 1.86865 105.947 0.934859C105.645 0.0509846 105.283 -0.128246 104.832 -1.00337C104.38 -1.87848 104.045 -2.45995 103.517 -2.92991C103.041 -3.35288 102.636 -3.42936 102.319 -2.85987C100.333 0.862399 95.6916 7.14401 92.4077 10.9422C92.1389 7.20147 91.8876 3.76027 91.6124 1.62269C91.425 0.131085 90.8937 -0.388796 90.0834 -0.541758C89.2731 -0.694723 88.7095 -0.912195 87.7407 -1.20615C86.7719 -1.5001 85.9116 -1.65015 85.3684 -1.51822C84.8751 -1.3892 84.6284 -1.3247 84.6664 -0.675806C84.9252 6.32101 84.1477 21.2919 86.0271 28.5947C86.3497 29.8279 86.6463 29.7605 87.5094 29.9605C88.4225 30.1575 88.719 30.0901 89.9961 30.5163C91.323 30.9396 92.0248 30.9486 92.8205 30.852C93.3167 30.7729 93.4635 30.7142 93.4285 30.1153C93.4026 28.8146 93.3095 26.3658 93.1344 23.3709ZM115.773 10.8783C115.633 8.48236 115.461 6.38886 115.373 4.89141C118.852 4.43755 121.654 3.52248 126.446 3.24232C127.144 3.20146 127.335 3.04004 127.362 2.63781C127.388 2.23557 127.459 1.73059 127.057 0.852549C126.652 -0.0754022 126.324 -0.557039 125.957 -1.68757C125.593 -2.76818 125.332 -3.80472 123.676 -3.85816C118.609 -4.01263 111.347 -3.13732 106.963 -1.87929C106.077 -1.6271 106.25 -1.23653 106.505 -0.299825C106.76 0.636881 106.774 1.73792 107.476 2.59845C107.96 3.17116 108.289 3.6528 108.714 4.07869C108.882 11.2311 108.348 19.2259 108.985 25.85C109.266 28.9389 110.863 28.8455 112.384 29.1572C113.45 29.3954 114.178 29.8537 115.285 29.9393C116.442 30.0219 116.835 29.8987 116.844 29.197C116.845 26.6426 116.591 22.3 116.281 17.8605C119.72 17.5593 122.988 16.9175 125.328 16.6805C125.827 16.6513 125.971 16.5427 126.045 16.0876C126.115 15.5826 126.189 14.2761 125.952 13.6389C125.714 13.0017 125.435 12.5171 125.239 11.7272C125.042 10.9373 124.799 10.2003 123.445 10.1793C121.74 10.1287 118.557 10.5152 115.773 10.8783ZM142.382 20.5917C143.001 22.6091 143.605 24.3768 144.274 25.5397C145.562 27.8685 147.021 27.9835 148.668 27.8872C149.767 27.823 150.574 27.9261 151.417 27.7766C152.259 27.6272 152.239 27.2778 151.951 26.6435C150.399 23.2283 149.148 17.2411 147.955 11.4008C146.709 5.51345 145.622 -0.232884 144.146 -3.20181C143.292 -4.95496 141.924 -5.22557 140.926 -5.1672C140.327 -5.13218 139.722 -5.19699 138.768 -5.24137C137.864 -5.28867 137.165 -5.24781 136.331 -4.94863C136.037 -4.83128 135.99 -4.77845 135.961 -4.42613C135.925 -4.17364 136.148 -3.78599 136.591 -3.06062C136.204 -2.83761 135.664 -2.65577 135.073 -2.471C133.893 -2.10147 132.915 -1.6937 132.406 -0.111323C131.266 3.51142 129.558 10.2727 128.657 16.2855C128.261 16.3587 127.817 16.4848 127.474 16.6051C126.884 16.7899 126.898 17.0394 126.98 17.5856C127.147 18.7278 127.579 19.2535 128.051 20.478C128.107 20.5749 128.112 20.6748 128.168 20.7717C128.112 21.5262 128.106 22.2779 128.097 22.9796C128.09 24.5827 128.545 25.5077 129.485 26.154C130.53 26.8943 130.614 27.4903 131.381 27.746C132.097 28.0047 132.546 27.9784 132.893 27.9081C133.239 27.8377 133.327 27.6322 133.392 27.0274C133.642 25.3099 133.984 23.4368 134.419 21.458C136.662 21.2767 139.499 20.9607 142.382 20.5917ZM135.748 15.0695C136.707 10.9065 137.668 6.79332 138.277 3.50217C139.06 6.61178 139.948 10.6668 140.828 14.5722C139.134 14.7213 137.39 14.8734 135.748 15.0695ZM166.814 24.1718C170.799 21.2342 170.569 18.1424 169.501 16.1513C167.593 12.6567 161.587 10.153 159.336 7.63007C157.942 6.05876 157.47 3.98277 158.574 2.31546C161.258 1.9582 163.97 4.65451 165.754 6.9042C166.297 7.62373 166.644 7.55339 166.967 7.08373C167.246 6.71681 167.419 6.25591 167.84 4.87902C168.181 3.85738 168.612 3.53163 168.625 2.02835C168.661 -0.778552 164.47 -5.64222 158.988 -6.02293C157.077 -6.1616 155.189 -5.90096 153.449 -1.39172C151.725 0.812677 151.393 2.83553 151.5 4.68238C151.722 8.4759 155.503 12.3118 157.663 14.1388C159.615 15.8278 161.611 17.414 161.789 18.7558C159.704 19.9295 154.588 17.2236 152.248 14.9061C151.664 14.3393 151.321 14.4595 151.147 14.9204C150.977 15.4313 151.071 16.1771 150.882 17.2399C150.765 17.7977 150.385 19.8734 151.36 21.1186C154.288 24.9542 159.035 27.3312 161.88 27.1649C164.027 27.0394 165.392 26.4086 166.814 24.1718ZM177.232 1.77555C177.382 7.777 176.389 17.3513 178.484 23.189C178.783 24.0229 179.461 24.4842 180.468 24.5755C181.525 24.664 181.933 24.7904 182.594 24.9521C183.254 25.1138 183.46 25.202 184.053 25.0671C184.596 24.9352 185.18 24.6506 185.418 24.4364C185.703 24.1693 185.786 23.8639 185.792 23.1123C185.717 17.5572 184.963 7.23357 184.343 0.908989C187.873 0.452211 191.05 -0.0340535 192.377 -0.462253C192.917 -0.644101 192.953 -0.896593 192.932 -1.24599C192.909 -1.64531 192.891 -1.9448 192.768 -2.33828C192.575 -3.07825 191.999 -3.49538 191.562 -4.12092C191.18 -4.64956 190.667 -5.72142 190.007 -6.73461C189.405 -7.60097 188.938 -7.87419 187.688 -7.85115C181.187 -7.67142 175.238 -5.77094 168.781 -4.84248C167.789 -4.68429 167.595 -4.57278 167.9 -3.639C168.143 -2.90195 168.36 -1.76266 168.642 -1.22819C168.982 -0.546899 169.402 -0.220841 170.036 0.343117C170.617 0.860076 171.037 1.18613 171.518 1.70893C171.999 2.23173 172.551 2.24954 173.547 2.14126C174.642 2.02714 175.887 1.90426 177.232 1.77555Z" fill="#940606"/>
</g>
</svg>
